<?xml version="1.0" encoding="utf-8"?>
<!-- Generator: Adobe Illustrator 15.1.0, SVG Export Plug-In . SVG Version: 6.00 Build 0)  -->
<!DOCTYPE svg PUBLIC "-//W3C//DTD SVG 1.1//EN" "http://www.w3.org/Graphics/SVG/1.1/DTD/svg11.dtd">
<svg version="1.1" id="Layer_1" xmlns="http://www.w3.org/2000/svg" xmlns:xlink="http://www.w3.org/1999/xlink" x="0px" y="0px"
	 width="256px" height="256px" viewBox="0 0 256 256" enable-background="new 0 0 256 256" xml:space="preserve">
<symbol  id="backdropIcon" viewBox="-61.682 -66.662 124.333 107.324">
	<g>
		<linearGradient id="SVGID_1_" gradientUnits="userSpaceOnUse" x1="-60.1816" y1="-12.9995" x2="61.1514" y2="-12.9995">
			<stop  offset="0" style="stop-color:#00963A"/>
			<stop  offset="1" style="stop-color:#006F15"/>
		</linearGradient>
		<path fill="url(#SVGID_1_)" d="M47.151-37.162H31.033c8.457,8.064,13.734,19.434,13.734,32.041
			c0,24.457-19.826,44.283-44.283,44.283S-43.799,19.336-43.799-5.121c0-12.607,5.277-23.977,13.734-32.041h-16.117
			c-7.732,0-14-6.268-14-14s6.268-14,14-14h93.333c7.731,0,14,6.268,14,14S54.883-37.162,47.151-37.162z"/>
		<path opacity="0.97" fill="#006837" d="M44.352-35.712H29.2c7.95,7.581,12.91,18.268,12.91,30.119
			c0,22.989-18.637,41.625-41.626,41.625S-41.142,17.396-41.142-5.593c0-11.852,4.96-22.538,12.91-30.119h-15.15
			c-7.269,0-13.16-5.891-13.16-13.159s5.892-13.16,13.16-13.16h87.733c7.268,0,13.16,5.892,13.16,13.16S51.619-35.712,44.352-35.712
			z"/>
		<path fill="none" stroke="#8CC63F" stroke-width="3" stroke-miterlimit="10" d="M47.151-37.162H31.033
			c8.457,8.064,13.734,19.434,13.734,32.041c0,24.457-19.826,44.283-44.283,44.283S-43.799,19.336-43.799-5.121
			c0-12.607,5.277-23.977,13.734-32.041h-16.117c-7.732,0-14-6.268-14-14s6.268-14,14-14h93.333c7.731,0,14,6.268,14,14
			S54.883-37.162,47.151-37.162z"/>
		<path fill="none" stroke="#999999" stroke-miterlimit="10" d="M47.151-37.162H31.033c8.457,8.064,13.734,19.434,13.734,32.041
			c0,24.457-19.826,44.283-44.283,44.283S-43.799,19.336-43.799-5.121c0-12.607,5.277-23.977,13.734-32.041h-16.117
			c-7.732,0-14-6.268-14-14s6.268-14,14-14h93.333c7.731,0,14,6.268,14,14S54.883-37.162,47.151-37.162z"/>
	</g>
</symbol>
<use xlink:href="#backdropIcon"  width="124.333" height="107.324" x="-61.682" y="-66.662" transform="matrix(1 0 0 -1 127.228 114.377)" overflow="visible"/>
<path d="M123.055,92.552c0.77-2.691,2.034-4.67,3.792-5.936c1.758-1.262,3.903-1.896,6.43-1.896c1.868,0,3.695,0.317,5.482,0.948
	c1.785,0.633,3.475,1.636,5.07,3.009c1.042,0.989,1.949,2.089,2.719,3.297c0.496,0.771,1.264,2.226,2.309,4.369
	c-2.967,0.66-5.936,1.318-8.902,1.979c0.109,0.605,1.017,2.28,2.721,5.029c1.537,2.473,2.309,4.945,2.309,7.418
	c0,3.078-0.771,6.649-2.309,10.716c-1.704,4.507-3.875,8.354-6.514,11.541c-0.164,0.22-0.687,0.824-1.564,1.813
	c-0.66,0.77-1.127,1.318-1.403,1.648c-0.274,0.329-0.411,0.688-0.411,1.071c0.055,0.605,0.137,1.183,0.248,1.731
	c0,2.749,0.521,5.222,1.566,7.419c0.107,0.33,0.686,0.605,1.73,0.824c1.043,0.221,2.17,0.438,3.38,0.659
	c-0.112,0.22-0.235,0.453-0.371,0.701c-0.139,0.246-0.263,0.508-0.372,0.782c-0.385,0.056-0.988,0.083-1.812,0.083
	c-0.936,0-2.061-0.097-3.381-0.289c-1.318-0.192-2.171-0.288-2.555-0.288c0-0.263-0.137-0.576-0.411-0.944
	c-0.276-0.367-0.33-0.63-0.167-0.786c0.167-0.11,0.441-0.137,0.824-0.083c0.385,0.056,0.744,0.083,1.074,0.083l-1.32-4.287
	l-1.318-5.193c-1.924,0.771-3.381,1.389-4.369,1.855c-0.99,0.467-2.007,1.059-3.051,1.771c0.604,1.704,1.237,3.408,1.897,5.111
	c0.164,0.276,0.438,0.411,0.824,0.411c0.274,0,0.688-0.081,1.237-0.246c0.548-0.165,0.934-0.247,1.154-0.247
	c0,0.329-0.029,0.7-0.083,1.112c-0.056,0.412,0,0.646,0.164,0.701c-1.374,0.523-2.625,0.942-3.75,1.259
	c-1.127,0.313-2.214,0.472-3.256,0.472c-0.936-0.165-1.704-0.303-2.308-0.412l1.071-1.318c0.714,0.108,1.208,0.165,1.484,0.165
	c0.384,0,0.714-0.057,0.988-0.165c0-0.704-0.274-1.707-0.824-3.008c-0.55-1.301-0.824-2.249-0.824-2.846
	c-1.318,0.271-2.555,0.729-3.709,1.373c-1.484,0.916-2.968,1.805-4.452,2.667c-1.318,0-2.171-0.027-2.555-0.083
	c-0.714-0.219-1.318-0.384-1.814-0.494c0.33-0.825,0.604-1.484,0.826-1.979c0.988-2.088,1.675-3.628,2.059-4.617
	c0.166-0.273,0.275-0.535,0.33-0.782c0.054-0.248,0-0.48-0.164-0.701c-0.11-0.109-0.494-0.315-1.154-0.618
	c-0.66-0.302-0.99-0.59-0.99-0.865c0-0.219,0.344-0.48,1.031-0.783c0.687-0.301,1.03-0.508,1.03-0.618v-3.791
	c0-0.935-0.027-1.607-0.083-2.021c-0.054-0.413-0.081-1.03-0.081-1.855c0-2.855,0.741-5.905,2.225-9.148
	c1.32-2.969,3.132-5.854,5.44-8.656c1.538-1.759,3.078-3.517,4.616-5.275c0.66-0.988,0.99-2.143,0.99-3.462
	c0-0.275-0.152-1.347-0.454-3.216c-0.303-1.866-0.453-3.103-0.453-3.708C122.892,93.57,122.945,93.102,123.055,92.552z"/>
<text transform="matrix(1 0 0 1 97.8242 171.9951)" font-family="'HoboStd'" font-size="18">Canary</text>
</svg>
